<svg xmlns="http://www.w3.org/2000/svg" width="1280" height="400" viewBox="0 0 1280 400">
  <!-- README 히어로 배너 — design/image-assets.md 3-1. 문서용이라 절제된 톤. -->
  <defs>
    <pattern id="hz" width="40" height="10" patternUnits="userSpaceOnUse">
      <rect width="40" height="10" fill="#0b0f1d" />
      <path d="M0 10 L10 0 L30 0 L20 10 Z" fill="#FFD400" />
    </pattern>
  </defs>
  <rect width="1280" height="400" fill="#12172b" />
  <rect width="1280" height="10" fill="url(#hz)" />

  <!-- 좌측 엠블럼 -->
  <g transform="translate(190, 212)">
    <polygon points="0,-118 102.2,-59 102.2,59 0,118 -102.2,59 -102.2,-59"
             fill="#161d33" stroke="#FFD400" stroke-width="10" />
    <g transform="translate(-76, -80) scale(6.35)" fill="#C9A227">
      <path d="M12 3c-3.1 0-5.2 2.3-5.2 5.4v3.4L5 14.4v1.2h14v-1.2l-1.8-2.6V8.4C17.2 5.3 15.1 3 12 3z" />
      <path d="M10.2 17.4a1.9 1.9 0 0 0 3.6 0h-3.6z" />
    </g>
  </g>

  <!-- 서비스명 + 슬로건 (copy.md 확정 문안) -->
  <text x="370" y="192" font-family="Malgun Gothic" font-size="52" font-weight="700" fill="#EDF0F7">HRDK 안전 골든벨 퀴즈 리그</text>
  <text x="372" y="242" font-family="Malgun Gothic" font-size="24" font-weight="700" fill="#FFD400">안전 이룸, 함께 해냄</text>

  <!-- 6회차 카드 행 -->
  <g transform="translate(372, 274)">
    <rect x="0"   width="40" height="40" rx="4" fill="#1c2138" stroke="#FFD400" stroke-width="2.5" />
    <rect x="54"  width="40" height="40" rx="4" fill="#1c2138" stroke="#FFD400" stroke-width="2.5" />
    <rect x="108" width="40" height="40" rx="4" fill="#1b2239" stroke="#3a4468" stroke-width="2.5" />
    <rect x="162" width="40" height="40" rx="4" fill="#1b2239" stroke="#3a4468" stroke-width="2.5" />
    <rect x="216" width="40" height="40" rx="4" fill="#1b2239" stroke="#3a4468" stroke-width="2.5" />
    <rect x="270" width="40" height="40" rx="4" fill="#1b2239" stroke="#3a4468" stroke-width="2.5" />
    <path d="M10 20 L17 27 L30 13" fill="none" stroke="#FFD400" stroke-width="4" stroke-linecap="round" stroke-linejoin="round" />
    <path d="M64 20 L71 27 L84 13" fill="none" stroke="#FFD400" stroke-width="4" stroke-linecap="round" stroke-linejoin="round" />
  </g>

  <rect y="390" width="1280" height="10" fill="#0b0f1d" />
  <rect y="388" width="1280" height="2" fill="#262f4d" />
</svg>
